# xmcd CD database file
#
# Track frame offsets:
#	150
#	11972
#	44435
#	81922
#	107440
#	133705
#	153165
#	173687
#	188420
#
# Disc length: 3478 seconds
#
# Revision: 0
# Processed by: cddbd v1.5.2PL0 Copyright (c) Steve Scherf et al.
# Submitted via: CDex 1.70beta2
#
DISCID=660d9409
DTITLE=McGill Jazz Ensemble - Poppin' The Cork
DYEAR=1992
DGENRE=Jazz
TTITLE0=I Just Found Out About Love
TTITLE1=Johnny Come Lately
TTITLE2=Blue Hodge
TTITLE3=Harlem Nocturne
TTITLE4=Corner Pocket
TTITLE5=I Get A Kick Out Of You
TTITLE6=I've Got You Under My Skin
TTITLE7=You Took Advantage Of Me
TTITLE8=Ellington Medley
EXTD=YEAR: 1992
EXTT0=
EXTT1=
EXTT2=
EXTT3=
EXTT4=
EXTT5=
EXTT6=
EXTT7=
EXTT8=
PLAYORDER=
